<?xml version="1.0" encoding="UTF-8" standalone="no"?>
<svg
   xmlns:dc="http://purl.org/dc/elements/1.1/"
   xmlns:cc="http://creativecommons.org/ns#"
   xmlns:rdf="http://www.w3.org/1999/02/22-rdf-syntax-ns#"
   xmlns:svg="http://www.w3.org/2000/svg"
   xmlns="http://www.w3.org/2000/svg"
   viewBox="0 0 53.333332 53.333332"
   height="53.333332"
   width="53.333332"
   xml:space="preserve"
   version="1.1"
   id="svg2"><metadata
     id="metadata8"><rdf:RDF><cc:Work
         rdf:about=""><dc:format>image/svg+xml</dc:format><dc:type
           rdf:resource="http://purl.org/dc/dcmitype/StillImage" /></cc:Work></rdf:RDF></metadata><defs
     id="defs6"><clipPath
       id="clipPath16"
       clipPathUnits="userSpaceOnUse"><path
         id="path18"
         d="M 0,40 40,40 40,0 0,0 0,40 Z" /></clipPath></defs><g
     transform="matrix(1.3333333,0,0,-1.3333333,0,53.333333)"
     id="g10"><g
       id="g12"><g
         clip-path="url(#clipPath16)"
         id="g14"><g
           transform="translate(11.8032,19.2474)"
           id="g20"><path
             id="path22"
             style="fill:#000000;fill-opacity:1;fill-rule:nonzero;stroke:none"
             d="m 0,0 0,-9.277 -3.66,0 0,19.897 c 0,0.089 0.073,0.162 0.162,0.162 l 23.389,0 c 0.09,0 0.163,-0.073 0.163,-0.162 l 0,-19.897 -3.66,0 0,9.277 L 0,0 Z m 8.737,-1.08 6.576,0 0,-8.196 -6.576,0 0,8.196 z m -1.08,-8.197 -6.576,0 0,8.196 6.576,0 0,-8.196 z m 18.892,15.845 -4.334,0 0,-1.08 4.334,0 c 0.191,0 0.345,-0.155 0.345,-0.346 l 0,-14.073 c 0,-0.191 -0.154,-0.346 -0.345,-0.346 l -5.415,0 0,19.897 c 0,0.685 -0.557,1.242 -1.243,1.242 l -23.389,0 c -0.685,0 -1.242,-0.557 -1.242,-1.242 l 0,-4.052 -5.415,0 c -0.786,0 -1.426,-0.64 -1.426,-1.426 l 0,-14.073 c 0,-0.786 0.64,-1.426 1.426,-1.426 l 4.334,0 0,1.08 -4.334,0 c -0.191,0 -0.346,0.155 -0.346,0.346 l 0,14.073 c 0,0.191 0.155,0.346 0.346,0.346 l 5.415,0 0,-2.999 0,-11.766 0,-0.097 0,-0.983 31.289,0 c 0.786,0 1.426,0.64 1.426,1.426 l 0,14.073 c 0,0.786 -0.64,1.426 -1.426,1.426" /></g><g
           transform="translate(22.4817,22.4176)"
           id="g24"><path
             id="path26"
             style="fill:#000000;fill-opacity:1;fill-rule:nonzero;stroke:none"
             d="m 0,0 -4.963,0 c -1.224,0 -2.219,0.996 -2.219,2.219 0,1.224 0.995,2.22 2.219,2.22 l 4.963,0 c 1.224,0 2.219,-0.996 2.219,-2.22 C 2.219,0.996 1.224,0 0,0 m 0,5.519 -4.963,0 c -1.819,0 -3.3,-1.48 -3.3,-3.3 0,-1.819 1.481,-3.299 3.3,-3.299 l 4.963,0 c 1.819,0 3.3,1.48 3.3,3.299 0,1.82 -1.481,3.3 -3.3,3.3" /></g></g></g></g></svg>